<?xml version="1.0" encoding="UTF-8" standalone="no"?>
<svg
   xmlns:dc="http://purl.org/dc/elements/1.1/"
   xmlns:cc="http://creativecommons.org/ns#"
   xmlns:rdf="http://www.w3.org/1999/02/22-rdf-syntax-ns#"
   xmlns:svg="http://www.w3.org/2000/svg"
   xmlns="http://www.w3.org/2000/svg"
   xmlns:sodipodi="http://sodipodi.sourceforge.net/DTD/sodipodi-0.dtd"
   xmlns:inkscape="http://www.inkscape.org/namespaces/inkscape"
   width="210mm"
   height="297mm"
   viewBox="0 0 210 297"
   version="1.1"
   id="svg8"
   inkscape:version="1.0.2 (e86c8708, 2021-01-15)"
   sodipodi:docname="logo.svg">
  <defs
     id="defs2" />
  <sodipodi:namedview
     id="base"
     pagecolor="#ffffff"
     bordercolor="#666666"
     borderopacity="1.0"
     inkscape:pageopacity="0.0"
     inkscape:pageshadow="2"
     inkscape:zoom="0.68"
     inkscape:cx="485.38929"
     inkscape:cy="424.36378"
     inkscape:document-units="mm"
     inkscape:current-layer="layer1"
     inkscape:document-rotation="0"
     showgrid="false"
     inkscape:window-width="924"
     inkscape:window-height="632"
     inkscape:window-x="41"
     inkscape:window-y="23"
     inkscape:window-maximized="0" />
  <metadata
     id="metadata5">
    <rdf:RDF>
      <cc:Work
         rdf:about="">
        <dc:format>image/svg+xml</dc:format>
        <dc:type
           rdf:resource="http://purl.org/dc/dcmitype/StillImage" />
        <dc:title></dc:title>
      </cc:Work>
    </rdf:RDF>
  </metadata>
  <g
     inkscape:label="Layer 1"
     inkscape:groupmode="layer"
     id="layer1">
    <path
       style="fill:none;stroke:#000000;stroke-width:0.264583px;stroke-linecap:butt;stroke-linejoin:miter;stroke-opacity:1"
       d="m 98.868705,999995.07 5.726255,-0.4 c -12.368707,8.53 7.55865,0 7.55865,0"
       id="path10" />
    <path
       style="fill:none;stroke:#000000;stroke-width:0.264583px;stroke-linecap:butt;stroke-linejoin:miter;stroke-opacity:1"
       d="M 168.35879,14.441579 C 152.57174,74.26838 93.510562,70.997551 86.039769,75.738573 c -24.645313,15.640093 4.530866,75.489387 -2.672696,69.719477 4.567113,-36.6795 50.847597,-53.466026 83.388097,-79.545715 2.93605,-2.353111 -0.93404,14.956574 -16.57071,35.561615 -10.96034,14.44284 -64.056102,30.28703 -66.817387,43.9841"
       id="path59"
       sodipodi:nodetypes="cscssc" />
    <path
       style="fill:none;stroke:#000000;stroke-width:0.264583px;stroke-linecap:butt;stroke-linejoin:miter;stroke-opacity:1"
       d="m 168.35879,14.440991 -0.53454,52.625441"
       id="path61"
       sodipodi:nodetypes="cc" />
    <path
       style="fill:none;stroke:#000000;stroke-width:0.264583px;stroke-linecap:butt;stroke-linejoin:miter;stroke-opacity:1"
       d="m 70.003595,97.285661 c -21.381561,6.948959 -20.847021,6.948959 -20.847021,6.948959 l 5.879927,19.24331 c 2.111327,-7.65162 1.985828,-14.46444 14.967094,-26.192269 z"
       id="path987"
       sodipodi:nodetypes="cccc" />
    <path
       style="fill:none;stroke:#000000;stroke-width:0.264583px;stroke-linecap:butt;stroke-linejoin:miter;stroke-opacity:1"
       d="M 49.156574,104.23462 Z"
       id="path989" />
    <path
       style="fill:none;stroke:#000000;stroke-width:0.264583px;stroke-linecap:butt;stroke-linejoin:miter;stroke-opacity:1"
       d="m 55.036501,123.47793 c -35.71514,36.31663 -13.411265,83.89026 -13.411265,83.89026 0,0 12.374325,43.51899 105.696024,20.42902 12.34481,-3.0544 15.69213,-36.96776 15.69213,-36.96776 l -87.664402,-3.20721 c 58.877432,-6.4941 116.866222,-22.67235 109.670332,-43.32934 26.95895,82.725 -0.38099,103.30309 -0.38099,103.30309 m 0,0 C 128.61105,295.42416 35.579888,261.85536 13.384496,217.02671 -4.3173056,181.27389 -10.767275,159.26238 49.156574,104.23459"
       id="path1001"
       sodipodi:nodetypes="ccscccccsc" />
    <path
       style="fill:none;stroke:#000000;stroke-width:0.264583px;stroke-linecap:butt;stroke-linejoin:miter;stroke-opacity:1"
       d="m 75.348988,187.62227 c 0,0 13.414448,11.51476 49.796872,12.20955 0.93692,0.0179 37.86753,-9.00234 37.86753,-9.00234"
       id="path1003"
       sodipodi:nodetypes="csc" />
    <path
       style="opacity:0.655;fill:#00ffff;fill-opacity:0.625;stroke:#549298;stroke-width:1.00157;stroke-opacity:0.615385"
       d="M 399.57623,1020.009 C 268.20928,1007.583 133.73664,938.05572 70.890284,850.06645 58.80462,833.14568 29.762651,773.63468 20.157039,746.10704 -1.6964819,683.47951 2.0713866,632.86152 32.848059,575.61434 45.504422,552.07245 63.202123,526.59793 85.919495,499.22198 104.45991,476.87953 164.34852,414.84421 177.33504,404.52965 l 8.07609,-6.41445 9.65665,32.31044 c 5.31116,17.77074 9.62971,33.05384 9.59678,33.96246 -0.0329,0.90862 -6.61542,9.77191 -14.62775,19.69621 -35.54893,44.03191 -53.2084,87.71587 -58.80782,145.472 -6.16241,63.56312 12.25648,145.77663 41.23259,184.04343 26.01366,34.35449 70.21486,57.74999 130.53756,69.09295 29.4101,5.53022 110.08554,5.53478 150.16577,0.009 27.78075,-3.83042 85.86517,-15.01919 103.3481,-19.90787 20.78766,-5.81277 38.08433,-33.19383 49.48111,-78.32979 6.2572,-24.78118 12.74234,-62.28069 11.06146,-63.96157 -0.46784,-0.46784 -64.98457,-3.059 -143.37052,-5.75816 -78.38593,-2.69977 -145.5984,-5.75759 -149.36101,-6.79579 l -6.8411,-1.88765 6.8411,-0.23871 c 10.93611,-0.38157 76.68421,-10.99863 115.15864,-18.59593 116.24574,-22.95424 201.70099,-53.72942 240.0246,-86.44057 11.24631,-9.59928 22.1586,-26.25758 22.38317,-34.16927 0.24541,-8.64567 14.71397,41.34314 23.70638,81.90553 12.26977,55.34556 15.72841,84.55271 15.80471,133.46571 0.073,46.78524 -2.75938,67.75797 -13.35959,98.92382 -11.77674,34.62506 -24.7963,50.93123 -59.81789,74.91797 -74.93144,51.32159 -168.43282,73.65889 -268.64784,64.17949 z"
       id="path1029"
       transform="scale(0.26458333)" />
    <path
       style="opacity:0.655;fill:#008080;fill-opacity:0.625;stroke:#549298;stroke-width:1.00157;stroke-opacity:0.615385"
       d=""
       id="path1031"
       transform="scale(0.26458333)" />
    <path
       style="opacity:0.655;fill:#008080;fill-opacity:0.625;stroke:#549298;stroke-width:1.00157;stroke-opacity:0.615385"
       d="m 198.1937,428.31427 c -5.2263,-17.09614 -9.00855,-31.88291 -8.40499,-32.8595 0.9807,-1.5868 57.74272,-20.51291 61.52106,-20.51291 0.84442,0 -3.0373,5.38737 -8.62604,11.97194 -15.46018,18.21493 -23.57185,32.94244 -29.55083,53.65238 l -5.43681,18.83198 z"
       id="path1033"
       transform="scale(0.26458333)" />
    <path
       style="opacity:0.655;fill:#008080;fill-opacity:0.625;stroke:#549298;stroke-width:1.00157;stroke-opacity:0.615385"
       d="m 425.80048,750.8924 c -44.56982,-4.56367 -85.80597,-15.09942 -115.94092,-29.62265 -10.46388,-5.04296 -18.6732,-9.47798 -18.24295,-9.85561 0.43025,-0.37763 22.84485,0.18263 49.81021,1.24501 112.42205,4.42921 234.7235,8.92546 248.56023,9.13799 11.43617,0.17565 13.25953,0.61715 7.98129,1.93253 -120.62491,30.06085 -129.77133,31.50387 -172.16786,27.16273 z"
       id="path1035"
       transform="scale(0.26458333)" />
    <path
       style="opacity:0.655;fill:#008080;fill-opacity:0.625;stroke:#549298;stroke-width:1.00157;stroke-opacity:0.615385"
       d="M 421.23974,749.63246 C 385.5033,745.86948 334.23499,732.05263 308.36147,719.21168 l -13.68221,-6.79045 50.16812,1.24137 c 27.59246,0.68275 53.24661,1.66644 57.00922,2.18599 3.76261,0.51954 31.98218,1.63364 62.71015,2.47578 30.72797,0.84214 56.47701,1.87486 57.22012,2.29495 0.74308,0.42008 16.39211,0.89828 34.77563,1.06266 18.38349,0.16438 33.41737,0.97334 33.40861,1.7977 -0.0168,1.58345 -82.8352,21.45613 -105.86994,25.40403 -12.80913,2.19534 -45.433,2.58393 -62.86143,0.74875 z"
       id="path1037"
       transform="scale(0.26458333)" />
    <path
       style="opacity:0.655;fill:#008080;fill-opacity:0.625;stroke:#549298;stroke-width:1.00157;stroke-opacity:0.615385"
       d=""
       id="path1039"
       transform="scale(0.26458333)" />
    <path
       style="opacity:0.655;fill:#008080;fill-opacity:0.625;stroke:#549298;stroke-width:1.00157;stroke-opacity:0.615385"
       d="m 201.64812,436.44772 c -10.67735,-35.43294 -11.40241,-39.1499 -8.05109,-41.27306 4.97639,-3.1527 52.2537,-18.51315 53.41292,-17.35392 0.58923,0.58922 -2.59961,5.46513 -7.0863,10.83535 -12.24701,14.65871 -19.84127,28.68412 -26.47526,48.89564 l -5.97868,18.21502 z"
       id="path1041"
       transform="scale(0.26458333)" />
    <path
       style="opacity:0.655;fill:#008080;fill-opacity:0.625;stroke:#549298;stroke-width:1.00157;stroke-opacity:0.615385"
       d="m 390.45476,743.39786 c -30.8754,-6.43312 -60.15805,-15.37487 -75.25218,-22.979 l -11.40185,-5.74402 51.30831,1.10653 c 57.76601,1.24579 155.49116,4.78563 198.39211,7.18624 28.49353,1.59442 28.50062,1.59624 18.24295,4.68503 -5.64392,1.69949 -28.55513,7.18043 -50.91381,12.17987 -37.31953,8.3447 -43.30168,9.07766 -72.97181,8.94085 -24.41869,-0.11261 -38.45179,-1.42672 -57.40372,-5.3755 z"
       id="path1043"
       transform="scale(0.26458333)" />
    <path
       style="opacity:0.655;fill:#ff0000;fill-opacity:0.625;stroke:#549298;stroke-width:1.00157;stroke-opacity:0.615385"
       d="m 316.47654,527.40485 c -0.0736,-0.80403 -4.62834,-19.27502 -10.1217,-41.04664 -25.87345,-102.54323 -22.68896,-159.81431 10.59206,-190.49168 11.7498,-10.8306 9.66767,-10.08125 49.56398,-17.83784 96.13274,-18.68999 148.42489,-42.10201 194.58389,-87.11826 30.34843,-29.59711 54.65999,-68.2502 68.20582,-108.440865 l 5.15366,-15.290942 -0.70452,89.461197 c -0.38751,49.20365 -1.55204,89.76385 -2.58786,90.13378 -1.03583,0.36992 -9.4412,6.44481 -18.67861,13.49975 -9.23741,7.05494 -48.60644,33.83187 -87.48673,59.50429 -108.17694,71.42857 -143.68939,99.8297 -172.29688,137.79469 -15.51966,20.59616 -23.3617,34.92721 -30.90186,56.47204 -2.85312,8.15232 -5.24768,14.16454 -5.32125,13.36048 z"
       id="path1047"
       transform="scale(0.26458333)" />
    <path
       style="opacity:0.655;fill:#ff0000;fill-opacity:0.625;stroke:#549298;stroke-width:1.00157;stroke-opacity:0.615385"
       d="m 314.31488,512.89345 c -5.87711,-20.98859 -18.48171,-81.28166 -20.94328,-100.18044 -3.83399,-29.43574 -1.74957,-67.52696 4.59785,-84.0223 10.03179,-26.07006 25.4568,-40.63685 47.58867,-44.94089 68.17677,-13.25854 116.65561,-27.24428 146.45731,-42.25172 61.39042,-30.91478 106.51096,-80.03802 134.01306,-145.90145 l 7.61755,-18.242952 -1.30617,62.510542 c -0.71839,34.3808 -1.30618,72.0219 -1.30618,83.6469 v 21.13636 l -17.67286,12.93653 c -9.72007,7.1151 -49.48401,34.26434 -88.3643,60.33166 -112.33966,75.3182 -145.37794,101.65215 -172.21588,137.26878 -15.28427,20.28377 -20.91732,30.09296 -29.86631,52.00806 l -6.04831,14.81166 z"
       id="path1049"
       transform="scale(0.26458333)" />
    <path
       style="opacity:0.655;fill:#800000;fill-opacity:0.625;stroke:#549298;stroke-width:1.00157;stroke-opacity:0.615385"
       d="m 313.05845,501.08041 c -10.97164,-43.57209 -17.74486,-83.16082 -18.89168,-110.4199 -2.7491,-65.3442 13.91357,-96.8613 55.98672,-105.89766 97.7165,-20.98731 136.6572,-34.77978 177.06875,-62.71626 39.09191,-27.02422 67.18524,-59.89466 90.53213,-105.92662 L 631.63329,88.755543 630.236,166.24608 c -1.38952,77.0593 -1.42608,77.51306 -6.57082,81.53815 -5.74728,4.49652 -55.5733,38.78403 -128.31345,88.2982 C 383.417,412.27636 347.35355,446.75169 324.42385,499.48321 l -7.45219,17.13784 z"
       id="path1051"
       transform="scale(0.26458333)" />
    <path
       style="opacity:0.655;fill:#800000;fill-opacity:0.625;stroke:#549298;stroke-width:1.00157;stroke-opacity:0.615385"
       d="m 322.0038,525.04228 c 3.25076,-16.0401 23.54813,-53.11951 39.67852,-72.48503 30.67563,-36.82798 58.28049,-58.37172 171.24894,-133.64833 42.04141,-28.01433 81.31322,-54.67212 87.27068,-59.23955 9.96574,-7.64045 10.83175,-7.91655 10.83175,-3.45325 0,22.29159 -46.03289,107.31405 -72.41635,133.75256 -15.736,15.76883 -37.72699,28.9596 -109.48006,65.66901 -77.565,39.68282 -94.17343,49.18499 -114.26174,65.37232 l -14.4074,11.60964 z"
       id="path1053"
       transform="scale(0.26458333)" />
    <path
       style="opacity:0.655;fill:#800000;fill-opacity:0.625;stroke:#549298;stroke-width:1.00157;stroke-opacity:0.615385"
       d="m 324.19555,523.14797 c 7.70294,-26.22032 32.4559,-64.56544 58.66805,-90.88343 24.93383,-25.03451 52.95097,-45.87145 147.83385,-109.94721 43.27001,-29.22084 82.7774,-56.09835 87.79421,-59.72781 8.4129,-6.08637 9.17436,-6.25864 9.80231,-2.21752 0.94546,6.08468 -6.61266,24.56024 -22.32457,54.57158 -26.57327,50.75772 -47.49124,76.94193 -76.0738,95.22597 -7.07422,4.52533 -44.42091,24.71895 -82.99264,44.87472 -77.14396,40.3118 -92.51198,48.99952 -107.75651,60.91605 -17.96326,14.04174 -16.80021,13.48261 -14.9509,7.18765 z"
       id="path1055"
       transform="scale(0.26458333)" />
    <path
       style="opacity:0.655;fill:#800000;fill-opacity:0.625;stroke:#549298;stroke-width:1.00157;stroke-opacity:0.615385"
       d="m 327.74461,518.38323 c 0,-5.53751 19.06896,-38.5661 32.85284,-56.9031 18.14979,-24.14506 39.92178,-44.85455 72.88394,-69.32712 37.27669,-27.67587 190.81776,-131.88316 192.23341,-130.46752 2.17903,2.17905 -4.13175,18.12988 -18.01441,45.53227 -25.98232,51.28535 -50.60509,83.28418 -77.12058,100.22299 -6.83341,4.36537 -46.57678,26.03992 -88.3186,48.16566 -78.77318,41.75467 -89.53994,47.87137 -103.44291,58.76702 -9.05048,7.09279 -11.07369,7.82541 -11.07369,4.0098 z"
       id="path1057"
       transform="scale(0.26458333)" />
    <path
       style="opacity:0.655;fill:#d40000;fill-opacity:0.625;stroke:#549298;stroke-width:1.00157;stroke-opacity:0.615385"
       d="m 330.02498,517.34302 c 0,-2.64737 12.62933,-25.9498 21.56224,-39.78455 22.08072,-34.19728 49.88386,-60.70351 104.2494,-99.38654 50.95259,-36.25459 166.33558,-113.18793 167.70421,-111.81929 2.26692,2.26691 -30.03118,65.38653 -44.61334,87.18711 -7.56763,11.31373 -21.30403,27.68417 -30.52535,36.37875 -17.52278,16.52189 -12.33022,13.48393 -141.9848,83.06943 -23.82986,12.78947 -50.76672,28.26465 -59.85969,34.38928 -9.09297,6.12464 -16.53267,10.60926 -16.53267,9.96581 z"
       id="path1059"
       transform="scale(0.26458333)" />
    <path
       style="opacity:0.655;fill:#d40000;fill-opacity:0.625;stroke:#549298;stroke-width:1.00157;stroke-opacity:0.615385"
       d="m 309.99177,480.43509 c -11.19019,-49.63258 -14.88559,-79.88772 -13.5814,-111.19415 1.2441,-29.8641 4.95678,-44.14925 15.43159,-59.37564 9.38716,-13.64536 23.37169,-19.81522 69.49132,-30.659 52.29769,-12.29639 86.01514,-23.05303 111.07913,-35.4368 54.21235,-26.78557 92.36215,-64.01551 122.47638,-119.52328 6.42086,-11.83519 12.28734,-22.09686 13.03662,-22.80369 1.88217,-1.775526 -0.48631,136.99565 -2.41055,141.23793 -0.85336,1.8813 -7.40041,7.4066 -14.54903,12.27845 -78.93461,53.7946 -153.90486,105.60965 -171.48314,118.51909 -65.15312,47.8483 -93.1256,77.18737 -112.84596,118.35893 l -9.56972,19.97941 z"
       id="path1061"
       transform="scale(0.26458333)" />
    <path
       style="fill:#ff0000;stroke:#000000;stroke-width:0.26458300000000001px;stroke-linecap:butt;stroke-linejoin:miter;stroke-opacity:1"
       d="m 179.14765,90.460694 c -19.8179,25.140816 -44.84939,42.461236 -70.24007,59.242886 35.91339,1.72572 46.94878,-2.69715 55.34066,-6.38546 35.74346,-11.09867 13.36217,-39.02226 14.89941,-52.857426 z"
       id="path1943"
       sodipodi:nodetypes="cccc" />
    <path
       style="opacity:0.430868;fill:#ff0000;fill-opacity:0;stroke:#549298;stroke-width:1.00157;stroke-opacity:0.615385"
       d="m 669.68433,363.27328 c -65.81616,78.26699 -148.99778,139.34727 -233.69625,195.57046 57.11243,0.74023 115.65556,1.99302 169.67404,-19.42297 26.9832,-10.07915 57.2024,-19.76444 74.15924,-44.87945 16.62977,-25.04417 9.49871,-56.36826 2.79244,-83.42839 -4.0669,-16.11222 -9.0132,-32.42547 -11.98412,-48.9657 l -0.8621,1.02688 z"
       id="path1947"
       transform="scale(0.26458333)" />
    <text
       xml:space="preserve"
       style="font-style:normal;font-weight:normal;font-size:10.5833px;line-height:1.25;font-family:sans-serif;fill:#000000;fill-opacity:1;stroke:none;stroke-width:0.264583"
       x="44.343479"
       y="274.22006"
       id="text1975"><tspan
         sodipodi:role="line"
         id="tspan1973"
         x="44.343479"
         y="274.22006"
         style="stroke-width:0.264583" /></text>
    <text
       xml:space="preserve"
       style="font-style:normal;font-weight:normal;font-size:10.5833px;line-height:1.25;font-family:sans-serif;fill:#000000;fill-opacity:1;stroke:none;stroke-width:0.264583"
       x="77.111916"
       y="282.87912"
       id="text1979"><tspan
         sodipodi:role="line"
         id="tspan1977"
         x="77.111916"
         y="282.87912"
         style="fill:#00ffff;stroke-width:0.264583">LOGOTYPE</tspan></text>
  </g>
</svg>
